<svg width="500" height="500" viewBox="0 0 500 500" fill="none" xmlns="http://www.w3.org/2000/svg">
<path d="M109.066 283.909L256.367 444.485C268.271 458.517 266.546 479.543 252.514 491.448C238.481 503.352 217.455 501.627 205.551 487.594L9.66793 274.058C6.85122 271.228 4.56872 267.913 2.93034 264.272C0.892922 259.745 -0.105338 254.82 0.00879219 249.858L0.00928099 249.827C0.122699 244.876 1.33568 240.012 3.5604 235.587C3.77673 235.158 4.00229 234.734 4.2369 234.316C5.59452 231.887 7.2536 229.639 9.17474 227.626L210.266 10.6695C222.775 -2.82668 243.857 -3.62635 257.352 8.88248C270.848 21.3913 271.648 42.4732 259.139 55.9689L109.633 217.27H466.681C485.082 217.27 500 232.188 500 250.59C500 268.992 485.082 283.909 466.681 283.909H109.066V283.909Z" fill="#7C574B"/>
</svg>
