<svg width="500" height="500" viewBox="0 0 500 500" fill="none" xmlns="http://www.w3.org/2000/svg">
<path d="M251.362 500C247.622 500 244.562 497.008 244.562 493.267C244.562 489.527 247.554 486.466 251.294 486.398C253.471 486.398 255.715 486.33 257.891 486.262C261.632 486.126 264.76 489.051 264.896 492.859C265.032 496.6 262.108 499.728 258.299 499.864C256.123 499.932 253.743 500 251.362 500C251.43 500 251.43 500 251.362 500ZM224.227 498.708C224.023 498.708 223.751 498.708 223.479 498.64L216.542 497.824C212.802 497.348 210.218 493.879 210.694 490.207C211.17 486.466 214.638 483.882 218.311 484.358C220.487 484.63 222.663 484.902 224.839 485.106C228.58 485.514 231.3 488.847 230.892 492.587C230.62 496.124 227.696 498.708 224.227 498.708ZM285.23 497.484C281.898 497.484 278.974 495.035 278.498 491.635C277.954 487.895 280.538 484.494 284.278 483.95L290.807 482.93C294.48 482.318 298.016 484.766 298.696 488.439C299.376 492.111 296.86 495.647 293.187 496.328C290.875 496.736 288.563 497.076 286.251 497.416C285.911 497.484 285.57 497.484 285.23 497.484ZM190.835 492.791C190.291 492.791 189.747 492.723 189.203 492.587C186.959 492.043 184.715 491.431 182.47 490.819C178.866 489.799 176.758 486.058 177.778 482.454C178.798 478.849 182.538 476.741 186.143 477.761C188.251 478.373 190.427 478.917 192.535 479.462C196.208 480.346 198.384 484.086 197.5 487.691C196.616 490.751 193.828 492.791 190.835 492.791ZM318.418 490.207C315.494 490.207 312.774 488.303 311.89 485.31C310.801 481.706 312.91 477.897 316.514 476.877C318.622 476.265 320.731 475.585 322.839 474.905C326.443 473.749 330.252 475.721 331.408 479.258C332.564 482.862 330.592 486.67 327.055 487.827C324.879 488.575 322.567 489.255 320.391 489.867C319.711 490.139 319.099 490.207 318.418 490.207ZM158.463 482.25C157.579 482.25 156.763 482.114 155.879 481.774C153.703 480.89 151.527 480.006 149.418 479.053C145.95 477.557 144.386 473.545 145.95 470.076C147.446 466.608 151.459 465.044 154.927 466.608C156.967 467.492 159.007 468.376 161.048 469.192C164.516 470.62 166.216 474.565 164.788 478.033C163.7 480.686 161.184 482.25 158.463 482.25ZM350.314 478.441C347.73 478.441 345.282 476.945 344.125 474.429C342.561 471.029 344.057 466.948 347.526 465.452C349.498 464.568 351.538 463.616 353.511 462.664C356.911 461.031 360.991 462.391 362.624 465.792C364.256 469.192 362.896 473.273 359.495 474.905C357.387 475.925 355.279 476.945 353.171 477.897C352.15 478.237 351.198 478.441 350.314 478.441ZM127.928 467.288C126.772 467.288 125.615 467.016 124.527 466.336C122.555 465.18 120.515 463.956 118.543 462.732C115.346 460.759 114.326 456.543 116.366 453.346C118.339 450.15 122.555 449.13 125.752 451.17C127.656 452.326 129.56 453.482 131.396 454.571C134.661 456.475 135.749 460.623 133.844 463.888C132.552 466.132 130.308 467.288 127.928 467.288ZM380.17 462.256C377.925 462.256 375.749 461.167 374.389 459.127C372.349 455.931 373.301 451.782 376.497 449.742C378.334 448.586 380.17 447.362 382.006 446.138C382.747 445.635 383.579 445.285 384.456 445.105C385.332 444.926 386.236 444.921 387.114 445.092C387.992 445.262 388.828 445.605 389.574 446.099C390.32 446.594 390.96 447.231 391.459 447.974C391.961 448.714 392.312 449.547 392.492 450.424C392.671 451.3 392.676 452.203 392.505 453.082C392.334 453.96 391.992 454.796 391.497 455.542C391.003 456.288 390.366 456.928 389.623 457.427C387.719 458.719 385.746 460.011 383.774 461.235C382.618 461.915 381.394 462.256 380.17 462.256ZM99.8404 448.246C98.3442 448.246 96.9161 447.77 95.6239 446.818C93.7877 445.39 91.9515 443.893 90.1833 442.397C87.3269 440.017 86.9189 435.732 89.2992 432.808C91.6795 429.952 95.964 429.544 98.8883 431.924C100.589 433.352 102.289 434.712 104.057 436.072C106.981 438.385 107.525 442.669 105.213 445.594C103.853 447.362 101.813 448.246 99.8404 448.246ZM407.441 442.125C405.537 442.125 403.633 441.309 402.272 439.745C399.824 436.888 400.164 432.604 403.02 430.156C404.721 428.728 406.353 427.299 407.985 425.803C410.773 423.287 415.058 423.491 417.574 426.279C420.09 429.068 419.886 433.352 417.098 435.868C415.398 437.433 413.63 438.997 411.862 440.493C410.569 441.581 409.005 442.125 407.441 442.125ZM74.6094 425.463C72.8412 425.463 71.073 424.783 69.7128 423.355C68.0807 421.723 66.5165 419.954 64.9523 418.254C62.436 415.466 62.64 411.181 65.4283 408.665C68.2167 406.149 72.5012 406.353 75.0175 409.141C76.5137 410.773 78.0098 412.406 79.506 413.97C82.0903 416.69 82.0223 420.975 79.302 423.559C78.0098 424.851 76.3096 425.463 74.6094 425.463ZM431.72 418.39C430.088 418.39 428.524 417.846 427.231 416.69C424.443 414.174 424.171 409.889 426.687 407.101C428.115 405.469 429.612 403.769 431.04 402.068C433.488 399.212 437.773 398.804 440.629 401.252C443.485 403.701 443.893 407.985 441.445 410.841C439.949 412.61 438.385 414.378 436.888 416.146C435.46 417.574 433.624 418.39 431.72 418.39ZM52.8468 399.416C50.7386 399.416 48.6984 398.464 47.3382 396.628C45.978 394.723 44.6179 392.819 43.3257 390.915C41.2175 387.787 41.9656 383.57 45.0939 381.462C48.2223 379.354 52.4388 380.102 54.547 383.23C55.7712 385.066 57.0633 386.835 58.3555 388.603C60.5318 391.663 59.8517 395.88 56.8593 398.124C55.6352 399.008 54.207 399.416 52.8468 399.416ZM452.53 391.459C451.238 391.459 449.946 391.119 448.79 390.303C445.662 388.195 444.845 383.978 446.886 380.85C448.11 379.014 449.334 377.177 450.49 375.273C452.462 372.077 456.679 371.125 459.875 373.097C463.072 375.069 464.024 379.286 462.051 382.482C460.827 384.454 459.535 386.426 458.243 388.331C456.883 390.439 454.707 391.459 452.53 391.459ZM34.8247 370.649C32.3764 370.649 30.0641 369.356 28.84 367.044C27.7519 365.004 26.6637 362.896 25.6436 360.855C23.9434 357.523 25.3716 353.443 28.704 351.742C32.1044 350.042 36.1169 351.47 37.8171 354.803C38.7692 356.775 39.7893 358.747 40.8094 360.651C42.5776 363.984 41.2855 368.064 38.0211 369.833C37.001 370.377 35.9128 370.649 34.8247 370.649ZM469.328 361.944C468.308 361.944 467.356 361.74 466.404 361.264C463.004 359.631 461.575 355.551 463.208 352.218C464.16 350.246 465.112 348.206 465.996 346.234C467.56 342.833 471.573 341.269 474.973 342.765C478.373 344.329 479.938 348.342 478.441 351.742C477.489 353.851 476.537 356.027 475.517 358.067C474.293 360.515 471.845 361.944 469.328 361.944ZM21.0871 339.569C18.2987 339.569 15.7144 337.869 14.6943 335.08C13.8782 332.904 13.1301 330.66 12.382 328.484C11.2259 324.947 13.1301 321.071 16.7346 319.915C20.271 318.758 24.1474 320.663 25.3036 324.267C25.9836 326.375 26.7317 328.484 27.4798 330.524C28.772 334.06 26.9358 337.937 23.3993 339.229C22.6513 339.501 21.8352 339.569 21.0871 339.569ZM481.842 330.32C481.162 330.32 480.482 330.184 479.802 329.98C476.197 328.824 474.225 325.015 475.381 321.411C476.061 319.302 476.673 317.194 477.285 315.086C478.305 311.482 482.114 309.373 485.718 310.393C489.323 311.414 491.431 315.222 490.411 318.826C489.799 321.071 489.119 323.315 488.371 325.491C487.418 328.484 484.766 330.32 481.842 330.32ZM11.77 306.925C8.64159 306.925 5.78525 304.749 5.10517 301.552C4.62911 299.308 4.15305 296.996 3.745 294.684C3.06492 291.011 5.51322 287.475 9.25366 286.795C12.9261 286.115 16.4625 288.563 17.1426 292.303C17.5506 294.48 17.9587 296.656 18.4348 298.764C19.1828 302.437 16.8706 306.041 13.1981 306.789C12.7221 306.857 12.246 306.925 11.77 306.925ZM489.799 297.336C489.459 297.336 489.051 297.336 488.643 297.268C484.97 296.656 482.454 293.119 483.066 289.447L484.086 282.918C484.63 279.178 488.031 276.593 491.771 277.138C495.511 277.682 498.096 281.082 497.552 284.822C497.212 287.135 496.872 289.447 496.464 291.759C495.988 294.956 493.063 297.336 489.799 297.336ZM7.14541 273.261C3.60899 273.261 0.616632 270.541 0.344599 266.936C0.208583 264.624 0.0725669 262.244 0.0045588 259.931C-0.131457 256.191 2.79289 252.995 6.53334 252.859C10.2738 252.723 13.4702 255.647 13.6062 259.387C13.6742 261.564 13.8102 263.808 13.9462 265.984C14.2182 269.725 11.3619 272.989 7.62146 273.193C7.41744 273.261 7.28142 273.261 7.14541 273.261ZM493.131 263.536H492.927C489.187 263.4 486.194 260.34 486.33 256.531C486.398 254.355 486.398 252.111 486.398 249.934C486.398 246.194 489.459 243.133 493.199 243.133C496.94 243.133 500 246.194 500 249.934C500 252.247 500 254.627 499.932 256.939C499.796 260.612 496.804 263.536 493.131 263.536ZM7.21342 239.325H6.73737C2.99692 239.053 0.140579 235.789 0.412611 232.048C0.548628 229.736 0.752648 227.424 1.02468 225.111C1.36472 221.371 4.69712 218.651 8.43757 218.991C12.178 219.331 14.8983 222.663 14.5583 226.403C14.3543 228.58 14.1502 230.824 14.0142 233C13.7422 236.605 10.7498 239.325 7.21342 239.325ZM491.771 230.484C488.371 230.484 485.378 227.9 485.038 224.431C484.834 222.255 484.562 220.079 484.222 217.902C483.746 214.162 486.33 210.762 490.071 210.218C493.811 209.741 497.212 212.326 497.756 216.066C498.096 218.379 498.368 220.691 498.572 223.003C498.98 226.744 496.26 230.076 492.519 230.484H491.771ZM11.974 205.661C11.4979 205.661 11.0219 205.593 10.5458 205.525C6.87338 204.709 4.5611 201.104 5.30919 197.432C5.78525 195.12 6.32931 192.875 6.87338 190.631C7.75748 186.959 11.4299 184.715 15.1024 185.599C18.7748 186.483 21.0191 190.155 20.135 193.828C19.5909 195.936 19.1148 198.112 18.6388 200.288C17.8907 203.485 15.1024 205.661 11.974 205.661ZM485.786 197.024C482.726 197.024 480.006 194.984 479.19 191.855C478.645 189.747 478.101 187.571 477.489 185.463C476.469 181.858 478.577 178.118 482.182 177.098C485.786 176.077 489.527 178.186 490.547 181.79L492.383 188.523C493.335 192.195 491.091 195.868 487.419 196.752C486.942 196.956 486.398 197.024 485.786 197.024ZM21.3591 173.017C20.611 173.017 19.7949 172.881 19.0468 172.609C15.5104 171.317 13.7422 167.44 15.0343 163.904C15.8504 161.728 16.6665 159.552 17.5506 157.375C18.9108 153.907 22.9233 152.207 26.3917 153.567C29.8601 154.927 31.5603 158.939 30.2002 162.408C29.3841 164.448 28.568 166.556 27.8199 168.597C26.7317 171.317 24.1474 173.017 21.3591 173.017ZM475.245 164.788C472.593 164.788 470.008 163.224 468.92 160.572C468.104 158.531 467.22 156.491 466.336 154.519C464.84 151.051 466.404 147.038 469.804 145.542C473.273 144.046 477.285 145.61 478.781 149.01C479.734 151.119 480.618 153.295 481.502 155.403C482.93 158.871 481.23 162.884 477.761 164.244C476.945 164.584 476.061 164.788 475.245 164.788ZM35.3008 142.005C34.2126 142.005 33.1245 141.733 32.1044 141.189C28.772 139.421 27.5478 135.273 29.316 132.008C30.4042 129.968 31.5603 127.86 32.7165 125.888C34.5527 122.623 38.7692 121.467 41.9655 123.371C45.2299 125.207 46.3861 129.424 44.4819 132.62C43.3937 134.525 42.3056 136.497 41.2855 138.401C40.0613 140.713 37.681 142.005 35.3008 142.005ZM460.215 134.321C457.903 134.321 455.591 133.096 454.367 130.92C453.278 129.016 452.122 127.112 450.966 125.275C448.994 122.079 449.946 117.863 453.142 115.89C456.339 113.918 460.555 114.87 462.528 118.067C463.752 120.039 464.976 122.011 466.132 124.051C468.036 127.316 466.948 131.464 463.684 133.368C462.596 134.048 461.371 134.321 460.215 134.321ZM53.3909 113.238C52.0307 113.238 50.6026 112.83 49.3784 111.946C46.3181 109.702 45.706 105.485 47.8823 102.425C49.2424 100.52 50.6706 98.6843 52.0988 96.8481C54.411 93.8557 58.6955 93.3116 61.6199 95.6239C64.6122 97.9362 65.1563 102.221 62.844 105.145C61.4839 106.845 60.1917 108.613 58.8996 110.45C57.5394 112.286 55.4992 113.238 53.3909 113.238ZM441.105 106.233C439.065 106.233 437.093 105.349 435.732 103.649C434.372 101.949 433.012 100.18 431.584 98.5483C429.204 95.6919 429.544 91.4074 432.468 88.9591C435.324 86.5788 439.609 86.9189 442.057 89.8432C443.553 91.6114 445.049 93.4477 446.478 95.2839C448.79 98.2082 448.314 102.493 445.321 104.805C444.097 105.757 442.601 106.233 441.105 106.233ZM75.2895 87.2589C73.5893 87.2589 71.8891 86.6469 70.5289 85.3547C67.8086 82.7704 67.7406 78.4179 70.3929 75.7656C72.0251 74.1334 73.6573 72.4332 75.3575 70.801C78.0778 68.1487 82.3624 68.2167 84.9467 70.937C87.599 73.6573 87.531 77.9418 84.8106 80.5261L80.1181 85.2187C78.8259 86.5789 77.0577 87.2589 75.2895 87.2589ZM418.254 81.1382C416.554 81.1382 414.854 80.5261 413.562 79.234C411.998 77.7378 410.365 76.1736 408.733 74.7455C405.945 72.2292 405.741 67.9446 408.257 65.1563C410.773 62.368 415.058 62.164 417.846 64.6803C419.546 66.2444 421.315 67.8766 422.947 69.4408C425.667 72.0251 425.735 76.3776 423.151 79.03C421.859 80.3901 420.09 81.1382 418.254 81.1382ZM100.589 64.6122C98.5483 64.6122 96.576 63.7281 95.2159 61.9599C92.9036 58.9676 93.4477 54.7511 96.372 52.4388C98.2082 51.0106 100.044 49.5825 101.949 48.2223C105.009 45.978 109.226 46.6581 111.47 49.6505C113.714 52.7108 113.034 56.9273 110.042 59.1716C108.273 60.4637 106.505 61.8239 104.805 63.1841C103.513 64.1362 102.017 64.6122 100.589 64.6122ZM392.207 59.3756C390.847 59.3756 389.419 58.9676 388.263 58.0835C386.494 56.7913 384.658 55.4992 382.822 54.275C379.694 52.1668 378.946 47.9503 381.054 44.8219C383.162 41.6935 387.379 40.9454 390.507 43.0537C392.411 44.3458 394.383 45.706 396.22 47.0662C399.28 49.2424 399.96 53.5269 397.784 56.5873C396.356 58.3555 394.315 59.3756 392.207 59.3756ZM128.744 45.638C126.364 45.638 124.119 44.4138 122.827 42.2376C120.923 38.9732 122.079 34.8247 125.343 32.9205C127.384 31.7643 129.424 30.6082 131.464 29.5201C134.797 27.7519 138.877 28.976 140.645 32.3084C142.413 35.6408 141.189 39.7213 137.857 41.4895C135.953 42.5096 133.98 43.5977 132.076 44.6859C131.056 45.366 129.9 45.638 128.744 45.638ZM363.304 41.4215C362.216 41.4215 361.127 41.1494 360.107 40.6054C358.135 39.5853 356.163 38.5651 354.191 37.613C350.79 35.9808 349.43 31.9004 351.062 28.5C352.694 25.0995 356.775 23.7394 360.175 25.3716C362.284 26.3917 364.324 27.4798 366.432 28.568C369.765 30.3362 371.057 34.4166 369.288 37.749C368.132 40.1293 365.752 41.4215 363.304 41.4215ZM159.279 30.8802C156.559 30.8802 154.043 29.248 152.955 26.5957C151.527 23.1273 153.227 19.1828 156.763 17.7547C158.939 16.8706 161.116 16.0545 163.292 15.2384C166.828 13.9462 170.705 15.7144 171.997 19.2508C173.289 22.7873 171.521 26.6637 167.985 27.9559C165.944 28.704 163.836 29.5201 161.796 30.3362C160.98 30.6762 160.164 30.8802 159.279 30.8802ZM332.224 27.6838C331.476 27.6838 330.66 27.5478 329.912 27.2758C327.804 26.5277 325.695 25.7796 323.655 25.0995C320.119 23.9434 318.146 20.0669 319.303 16.5305C320.459 12.9941 324.335 11.0219 327.872 12.178C330.048 12.9261 332.292 13.6742 334.536 14.4903C338.073 15.7824 339.909 19.6589 338.617 23.1953C337.597 25.9837 335.012 27.6838 332.224 27.6838ZM191.651 20.407C188.591 20.407 185.803 18.2987 185.055 15.2384C184.17 11.5659 186.415 7.8935 190.019 7.00939C192.263 6.46533 194.576 5.92126 196.82 5.44521C200.492 4.62911 204.097 7.00939 204.913 10.6818C205.729 14.3543 203.349 17.9587 199.676 18.7748C197.568 19.2508 195.392 19.7269 193.216 20.271C192.739 20.407 192.127 20.407 191.651 20.407ZM299.512 18.5028C299.036 18.5028 298.56 18.4347 298.152 18.3667C296.044 17.8907 293.799 17.4826 291.691 17.1426C288.019 16.4625 285.502 12.9261 286.183 9.25366C286.863 5.58123 290.399 3.06492 294.071 3.745C296.384 4.15305 298.696 4.62911 300.94 5.03716C304.613 5.78525 306.993 9.38967 306.245 13.0621C305.497 16.2585 302.641 18.5028 299.512 18.5028ZM225.111 14.6943C221.643 14.6943 218.719 12.11 218.379 8.57358C217.97 4.83314 220.691 1.50074 224.431 1.09269L231.368 0.480613C235.108 0.208581 238.373 2.99692 238.645 6.73737C238.917 10.4778 236.129 13.7422 232.388 14.0142C230.212 14.1502 227.968 14.3543 225.791 14.5583C225.519 14.6263 225.315 14.6943 225.111 14.6943ZM265.848 13.9462H265.372C263.196 13.8102 260.952 13.6742 258.775 13.6062C255.035 13.4702 252.111 10.3418 252.247 6.53334C252.383 2.79289 255.511 -0.131457 259.319 0.0045588C261.632 0.0725669 264.012 0.208583 266.324 0.344599C270.065 0.616632 272.921 3.81302 272.649 7.55346C272.377 11.1579 269.385 13.9462 265.848 13.9462Z" fill="#7C574B"/>
<path d="M439.359 64.4173C421.745 64.4173 407.396 78.767 407.396 96.3811C407.396 113.995 421.745 128.345 439.359 128.345C456.973 128.345 471.323 113.995 471.323 96.3811C471.323 78.767 456.973 64.4173 439.359 64.4173ZM420.929 96.3811C420.929 86.2479 429.158 78.0189 439.291 78.0189C449.425 78.0189 457.653 86.2479 457.653 96.3811C457.653 106.514 449.425 114.743 439.291 114.743C429.158 114.743 420.929 106.514 420.929 96.3811Z" fill="#E06E6E"/>
<path d="M393.091 182.47H106.641C104.533 186.891 102.629 191.447 100.997 196.072H398.804C397.104 191.447 395.2 186.891 393.091 182.47Z" fill="#E06E6E"/>
<path d="M381.054 118.747C346.03 83.7225 299.444 64.4082 249.866 64.4082C200.288 64.4082 153.703 83.7225 118.679 118.747C83.6546 153.771 64.3403 200.356 64.3403 249.934C64.3403 299.512 83.6546 346.098 118.679 381.122C153.703 416.146 200.288 435.46 249.866 435.46C299.444 435.46 346.03 416.146 381.054 381.122C416.078 346.098 435.392 299.512 435.392 249.934C435.392 200.356 416.146 153.771 381.054 118.747ZM108.41 320.867H167.645C168.393 323.043 169.209 325.219 170.025 327.395C177.506 346.71 187.911 365.208 200.901 382.346C207.837 391.459 214.706 399.212 220.963 405.537C171.657 396.424 130.308 364.392 108.41 320.867ZM243.066 407.713C234.905 400.64 223.071 389.215 211.374 373.709C201.377 360.447 190.359 342.697 182.13 320.799H243.066V407.713ZM256.667 407.713V320.867H317.602C309.373 342.697 298.356 360.515 288.359 373.777C276.662 389.283 264.828 400.64 256.667 407.713ZM278.838 405.605C285.095 399.212 291.963 391.527 298.9 382.414C311.958 365.208 322.363 346.778 329.776 327.464C330.592 325.287 331.408 323.111 332.156 320.935H391.391C369.493 364.392 328.144 396.424 278.838 405.605ZM397.444 307.265H336.373C341.337 289.243 343.854 270.609 343.854 251.634C343.854 232.796 341.337 214.162 336.441 196.004H322.227C327.124 212.734 330.184 231.3 330.184 251.634C330.184 272.037 327.056 290.671 322.159 307.265H256.667V196.072H243.066V307.265H177.574C172.677 290.671 169.549 272.105 169.549 251.634C169.549 231.368 172.677 212.734 177.506 196.004H163.292C158.396 214.162 155.879 232.796 155.879 251.634C155.879 270.609 158.396 289.175 163.36 307.265H102.289C95.352 289.447 91.5436 270.133 91.5436 249.934C91.5436 231.028 94.876 212.87 100.997 196.072C102.697 191.447 104.601 186.891 106.641 182.47C128.2 136.905 170.909 103.173 222.051 94.0598C215.522 100.929 208.177 109.294 200.833 119.291C187.843 136.973 177.438 155.879 169.957 175.397C169.073 177.71 168.257 180.09 167.441 182.47H181.926C190.223 160.028 201.377 141.529 211.442 127.724C223.139 111.81 234.905 99.9765 243.066 92.5636V182.47H256.667V92.5636C264.828 99.9765 276.594 111.878 288.291 127.724C298.424 141.529 309.577 159.96 317.806 182.47H332.292C331.476 180.09 330.66 177.778 329.776 175.397C322.295 155.811 311.958 136.973 298.9 119.291C291.623 109.294 284.278 100.861 277.75 94.0598C328.892 103.173 371.601 136.905 393.159 182.47C395.268 186.891 397.172 191.447 398.804 196.072C404.925 212.87 408.257 231.028 408.257 249.934C408.189 270.133 404.381 289.515 397.444 307.265Z" fill="#7C574B"/>
</svg>
