<svg width="500" height="500" viewBox="0 0 500 500" fill="none" xmlns="http://www.w3.org/2000/svg">
<path d="M250 0C111.928 0 0 111.928 0 250C0 388.072 111.928 500 250 500C388.072 500 500 388.072 500 250C500 111.928 388.072 0 250 0ZM270.833 395.833H229.167V354.167H270.833V395.833ZM302.714 257.243C280.538 271.118 270.833 278.524 270.833 291.667V312.5H229.167V291.667C229.167 254.069 258.911 235.474 280.619 221.924C302.795 208.049 312.5 200.643 312.5 187.5C312.5 164.51 293.803 145.833 270.833 145.833H229.167C206.197 145.833 187.5 164.51 187.5 187.5V208.333H145.833V187.5C145.833 141.561 183.207 104.167 229.167 104.167H270.833C316.793 104.167 354.167 141.561 354.167 187.5C354.167 225.098 324.422 243.693 302.714 257.243Z" fill="#7C574B"/>
</svg>
