<svg width="546" height="527" viewBox="0 0 546 527" fill="none" xmlns="http://www.w3.org/2000/svg">
<path opacity="0.1" d="M352.167 487.442H356.333C382.993 487.442 401.312 487.406 415.072 485.557C428.352 483.771 434.864 480.576 439.387 476.054C439.387 476.053 439.388 476.053 439.388 476.053C439.388 476.053 439.388 476.053 439.388 476.053C443.911 471.529 447.107 465.017 448.892 451.738C450.742 437.978 450.778 419.659 450.778 392.997V226.75C450.778 201.437 450.454 193.67 447.536 186.978C444.619 180.288 439.148 174.767 420.598 157.541L337.265 80.1607L337.265 80.1605C319.004 63.2037 306.472 51.612 295.871 44.0638C285.659 36.7934 279.097 34.6667 273 34.6667C266.903 34.6667 260.341 36.7934 250.13 44.0638C239.528 51.612 226.996 63.2037 208.736 80.1605L208.735 80.1607L125.402 157.542L114.061 145.328L125.402 157.542C106.853 174.766 101.382 180.288 98.4641 186.979L352.167 487.442ZM352.167 487.442V392.997C352.167 349.276 316.722 313.831 273 313.831C229.279 313.831 193.833 349.276 193.833 392.997V487.442H189.667C163.007 487.442 144.688 487.406 130.928 485.557C117.647 483.771 111.135 480.575 106.612 476.053C102.089 471.53 98.8931 465.018 97.1077 451.738C95.2577 437.978 95.2223 419.659 95.2223 392.997V226.75C95.2223 201.437 95.5462 193.671 98.464 186.979L352.167 487.442Z" fill="#323232" stroke="#7C574B" stroke-width="33.3333"/>
<path d="M467.445 170.778V393C467.445 445.378 467.445 471.567 451.172 487.839C434.9 504.111 408.711 504.111 356.333 504.111H328.556H217.445H189.667C137.288 504.111 111.099 504.111 94.8276 487.839C78.5557 471.567 78.5557 445.378 78.5557 393V170.778" stroke="#7C574B" stroke-width="45" stroke-linejoin="round"/>
<path d="M23 226.333L148 115.222L236.092 36.9192C257.139 18.2089 288.861 18.2089 309.908 36.9192L398 115.222L523 226.333" stroke="#7C574B" stroke-width="45" stroke-linecap="round" stroke-linejoin="round"/>
<path d="M217.444 504.111V393C217.444 362.317 242.317 337.444 273 337.444C303.683 337.444 328.555 362.317 328.555 393V504.111" stroke="#7C574B" stroke-width="45" stroke-linecap="round" stroke-linejoin="round"/>
</svg>
