<svg width="407" height="430" viewBox="0 0 407 430" fill="none" xmlns="http://www.w3.org/2000/svg">
<path d="M218.75 193.868C218.75 185.239 211.754 178.243 203.125 178.243C194.496 178.243 187.5 185.239 187.5 193.868V235.535C187.5 244.164 194.496 251.16 203.125 251.16C211.754 251.16 218.75 244.164 218.75 235.535V193.868Z" fill="#7C574B"/>
<path fill-rule="evenodd" clip-rule="evenodd" d="M239.056 6.93241L289.76 15.383C313.84 19.3957 333.346 22.6466 348.606 27.1895C364.498 31.9207 377.627 38.5487 387.735 50.4818C397.844 62.4147 402.225 76.4557 404.279 92.9091C406.25 108.708 406.25 128.484 406.25 152.894V276.508C406.25 300.918 406.25 320.695 404.279 336.493C402.225 352.947 397.844 366.987 387.735 378.92C377.627 390.853 364.498 397.48 348.606 402.212C333.346 406.755 313.84 410.005 289.763 414.018L239.056 422.47C217.531 426.058 199.735 429.024 185.521 429.368C170.613 429.728 156.791 427.333 145.26 417.564C135.526 409.318 130.705 398.597 128.178 386.576H118.673C95.0729 386.576 75.7863 386.576 60.5602 384.53C44.6446 382.391 30.8458 377.76 19.8315 366.745C8.81689 355.73 4.18606 341.933 2.04626 326.016C-0.000818968 310.791 -0.00040478 291.503 1.18864e-05 267.903V161.499C-0.00040478 137.899 -0.000818968 118.612 2.04626 103.386C4.18606 87.4707 8.81689 73.672 19.8315 62.6576C30.8458 51.643 44.6446 47.0122 60.5602 44.8724C75.7865 42.8253 95.0725 42.8257 118.673 42.8262H128.178C130.705 30.8045 135.526 20.0849 145.26 11.8389C156.791 2.07012 170.613 -0.325923 185.521 0.0340771C199.735 0.377619 217.533 3.34449 239.056 6.93241ZM125 325.849C125 336.599 124.999 346.433 125.238 355.326H119.792C94.7977 355.326 77.624 355.293 64.7242 353.56C52.2738 351.885 46.169 348.889 41.9286 344.647C37.6881 340.408 34.6915 334.303 33.0175 321.851C31.2833 308.951 31.25 291.778 31.25 266.785V162.618C31.25 137.624 31.2833 120.45 33.0175 107.55C34.6915 95.0999 37.6881 88.9951 41.9286 84.7547C46.169 80.5143 52.2738 77.5176 64.7242 75.8436C77.624 74.1095 94.7977 74.0762 119.792 74.0762H125.238C124.999 82.9701 125 92.8032 125 103.553V325.849ZM184.767 31.2751C173.469 31.002 168.663 32.9701 165.458 35.6832C162.256 38.3964 159.525 42.8139 157.937 54.0026C156.287 65.6237 156.25 81.4297 156.25 104.739V324.662C156.25 347.972 156.287 363.778 157.937 375.399C159.525 386.589 162.256 391.005 165.458 393.718C168.663 396.433 173.469 398.399 184.767 398.126C196.5 397.843 212.098 395.283 235.09 391.449L283.606 383.364C308.944 379.141 326.517 376.183 339.69 372.262C352.442 368.464 359.19 364.272 363.892 358.72C368.594 353.17 371.621 345.826 373.269 332.622C374.971 318.985 375 301.164 375 275.476V153.925C375 128.237 374.971 110.418 373.269 96.7807C371.621 83.5764 368.594 76.232 363.892 70.6809C359.19 65.1299 352.442 60.9374 339.69 57.1403C326.517 53.2191 308.944 50.2614 283.606 46.0384L235.09 37.9522C212.098 34.1203 196.5 31.5584 184.767 31.2751Z" fill="#7C574B"/>
</svg>
