<svg width="347" height="284" viewBox="0 0 347 284" fill="none" xmlns="http://www.w3.org/2000/svg">
<path d="M220.596 4.03315C249.602 -2.24632 285.586 -1.93243 334.554 10.2794C342.993 12.3837 348.123 20.9139 346.014 29.332C343.905 37.75 335.354 42.8684 326.916 40.7642C281.389 29.4109 250.44 29.7266 227.277 34.7413C204.042 39.7712 187.34 49.7473 169.645 60.5351L168.321 61.3432C151.264 71.749 132.376 83.2719 107.423 87.4203C81.5402 91.7229 50.9655 87.9189 9.90371 71.532C1.82803 68.3091 -2.09982 59.1655 1.1308 51.109C4.36133 43.0526 13.527 39.1341 21.6027 42.3571C59.2864 57.3957 83.8335 59.4855 102.245 56.4248C120.938 53.3174 135.189 44.7152 153.22 33.7226C170.96 22.9068 191.661 10.297 220.596 4.03315Z" fill="#7C574B"/>
<path d="M334.554 73.125C285.586 60.9134 249.602 60.5995 220.596 66.8788C191.661 73.1428 170.96 85.7525 153.22 96.5682C135.189 107.561 120.938 116.163 102.245 119.271C83.8335 122.331 59.2864 120.241 21.6027 105.203C13.527 101.98 4.36133 105.898 1.1308 113.955C-2.09982 122.011 1.82803 131.155 9.90371 134.377C50.9655 150.765 81.5402 154.568 107.423 150.265C132.376 146.117 151.264 134.595 168.321 124.189L169.645 123.381C187.34 112.593 204.042 102.617 227.277 97.5869C250.44 92.5723 281.389 92.2567 326.916 103.61C335.354 105.714 343.905 100.596 346.014 92.1776C348.123 83.7595 342.993 75.2293 334.554 73.125Z" fill="#7C574B"/>
<path fill-rule="evenodd" clip-rule="evenodd" d="M283.487 110.665C278.019 110.665 273.462 113.489 270.283 117.762C269.166 119.271 266.585 122.802 263.156 127.744C258.595 134.316 252.491 143.449 246.359 153.644C240.258 163.788 233.963 175.26 229.147 186.469C224.535 197.204 220.475 208.86 220.491 220.676C220.502 223.993 220.899 227.326 221.444 230.591C222.354 236.04 224.203 243.543 228.058 251.237C231.945 258.993 238.023 267.227 247.435 273.486C256.946 279.811 268.919 283.49 283.487 283.49C298.055 283.49 310.028 279.811 319.537 273.486C328.949 267.227 335.029 258.993 338.916 251.238C342.771 243.543 344.622 236.04 345.532 230.592C346.078 227.323 346.48 223.981 346.485 220.661C346.489 208.844 342.44 197.205 337.827 186.469C333.013 175.26 326.718 163.788 320.616 153.644C314.485 143.449 308.379 134.316 303.818 127.744C300.389 122.802 297.806 119.271 296.691 117.762C293.511 113.489 288.954 110.665 283.487 110.665ZM308.877 198.848C304.834 189.436 299.317 179.304 293.606 169.81C290.133 164.037 286.651 158.6 283.487 153.831C280.323 158.6 276.841 164.037 273.368 169.81C267.659 179.304 262.142 189.436 258.099 198.848L257.869 199.38C255.086 205.852 251.798 213.503 251.993 220.651C252.182 226.305 253.705 232.142 256.233 237.185C258.25 241.214 261.031 244.764 264.907 247.342C268.686 249.854 274.431 252.067 283.487 252.067C292.543 252.067 298.288 249.854 302.067 247.342C305.943 244.764 308.724 241.212 310.743 237.185C313.271 232.142 314.794 226.305 314.983 220.65C315.18 213.504 311.89 205.853 309.107 199.383L308.877 198.848Z" fill="#7C574B"/>
<path d="M206.784 134.355C218.758 130.479 227.938 142.942 222.308 154.174C219.736 159.307 216.843 163.675 211.091 165.706C195.702 171.143 182.955 178.799 169.645 186.913L168.32 187.721C151.264 198.126 132.376 209.649 107.423 213.797C81.5402 218.1 50.9656 214.296 9.90369 197.909C1.828 194.687 -2.09978 185.543 1.13078 177.487C4.36146 169.429 13.527 165.511 21.6028 168.735C59.2864 183.772 83.8336 185.862 102.245 182.802C120.938 179.695 135.189 171.093 153.22 160.099C170.355 149.653 187.99 140.439 206.784 134.355Z" fill="#7C574B"/>
</svg>
