<svg width="200" height="284" viewBox="0 0 200 284" fill="none" xmlns="http://www.w3.org/2000/svg">
<path d="M116.283 48.1652C116.283 -16.0551 18.6131 -16.0551 18.6131 48.1652V169.536C7.09735 181.61 0 198.009 0 216.055C0 253.3 30.1939 283.494 67.4387 283.494C104.684 283.494 134.877 253.3 134.877 216.055C134.877 198.009 127.789 181.619 116.246 169.518L116.274 169.546L116.283 48.1652ZM67.448 259.709C43.0492 259.709 23.264 239.924 23.264 215.525C23.264 202.456 28.9382 190.717 37.961 182.624L37.9982 182.587C38.082 182.512 38.1192 182.401 38.2029 182.317C38.7517 181.731 39.2447 181.08 39.6633 180.382L39.6912 180.326C40.0912 179.833 40.4725 179.275 40.7981 178.699L40.826 178.643C41.012 178.131 41.1702 177.508 41.2818 176.875L41.2911 176.81C41.5423 176.057 41.7283 175.183 41.812 174.28V174.234L41.8771 173.927V48.1652C41.8678 47.8768 41.8585 47.5327 41.8585 47.1885C41.8585 33.0496 53.3185 21.5897 67.4573 21.5897C81.5962 21.5897 93.0561 33.0496 93.0561 47.1885C93.0561 47.5327 93.0468 47.8768 93.0375 48.2117V48.1652V173.927C93.0375 174.038 93.1026 174.141 93.1026 174.252C93.1864 175.164 93.3631 176.001 93.6236 176.801L93.605 176.717C93.7259 177.452 93.8933 178.103 94.1166 178.736L94.0887 178.652C94.4421 179.285 94.8235 179.834 95.2328 180.345L95.2142 180.326C95.6607 181.08 96.1537 181.731 96.7025 182.326L96.6932 182.317C96.7769 182.401 96.8048 182.512 96.8978 182.587C105.958 190.717 111.632 202.456 111.632 215.525C111.632 239.924 91.8469 259.709 67.448 259.709ZM79.0754 187.628V117.864C79.0754 111.446 73.8663 106.237 67.448 106.237C61.0297 106.237 55.8207 111.446 55.8207 117.864V187.628C44.8072 192.307 37.2169 203.032 37.2169 215.534C37.2169 232.231 50.7511 245.765 67.448 245.765C84.1449 245.765 97.6792 232.231 97.6792 215.534C97.6792 203.032 90.0888 192.307 79.2707 187.703L79.0754 187.628ZM165.118 8.55774C145.854 8.55774 130.236 24.1756 130.236 43.4398C130.236 62.7041 145.854 78.3219 165.118 78.3219C184.382 78.3219 200 62.7041 200 43.4398C199.981 24.1849 184.373 8.57635 165.118 8.55774ZM165.118 55.0672C158.7 55.0672 153.491 49.8581 153.491 43.4398C153.491 37.0215 158.7 31.8125 165.118 31.8125C171.536 31.8125 176.745 37.0215 176.745 43.4398C176.736 49.8581 171.536 55.0579 165.118 55.0672Z" fill="#7C574B"/>
</svg>
